<svg xmlns="http://www.w3.org/2000/svg"  viewBox="0 0 32 32">

				<path d="M16.561,19.141c-0.586-0.586-1.536-0.586-2.121,0l-4.248,4.247
					c-0.586,0.586-0.586,1.536,0,2.122c0.586,0.585,1.535,0.585,2.121,0L14,23.823v5.354c0,0.829,0.672,1.5,1.5,1.5
					c0.829,0,1.5-0.671,1.5-1.5v-5.354l1.687,1.687c0.586,0.585,1.536,0.585,2.121,0c0.586-0.586,0.586-1.536,0-2.122L16.561,19.141
					z M23.602,5.752c-0.447-0.007-0.874,0.021-1.303,0.091c-1.708-2.356-4.478-3.81-7.44-3.843C10.61,2.06,6.972,4.952,5.91,8.994
					C3.17,9.612,1,12.299,1,15.287c0,3.424,2.845,6.426,6.089,6.426h1.164c0.827,0,1.5-0.672,1.5-1.499
					c0-0.826-0.673-1.498-1.5-1.498H7.089c-1.617,0-3.092-1.635-3.092-3.429c0-0.928,0.387-1.846,1.062-2.519
					c0.576-0.575,1.284-0.893,2.087-0.893h1.32l0.178-1.308c0.407-3.125,3.091-5.52,6.209-5.57c2.267,0.033,4.348,1.29,5.442,3.299
					L20.922,9.4l1.177-0.428c0.464-0.162,0.95-0.236,1.469-0.224c2.445,0,4.435,2.155,4.435,4.803c0,2.751-2.175,5.165-4.654,5.165
					h-0.603c-0.827,0-1.498,0.672-1.498,1.498c0,0.827,0.671,1.499,1.498,1.499h0.603c4.076,0,7.651-3.814,7.651-8.162
					C31,9.251,27.67,5.752,23.602,5.752"/>
</svg>
