<svg xmlns="http://www.w3.org/2000/svg"  viewBox="0 0 128 128">
	<path d="M89.2,118c0.4,0,4.2,0,4.2,0c1.5,0,2.5-1.6,1.8-3c-0.4-0.6-1-1-1.8-1h-3.7c-3.5,0-6.2-2.7-6.2-6s2.7-6,6.2-6
	h3.7c1.5,0,2.5-1.6,1.8-3c-0.3-0.6-1-1-1.8-1c0,0-3.6,0-4.3,0c-5.2,0-9.5,4.8-9.5,10C79.6,113.3,84,118,89.2,118z M64,118.3
	c5.7,0,10.3-4.7,10.3-10.3c0-5.7-4.6-10.3-10.3-10.3s-10.3,4.6-10.3,10.3C53.7,113.7,58.3,118.3,64,118.3z M64,101.8
	c3.4,0,6.2,2.7,6.2,6.2c0,3.4-2.7,6.2-6.2,6.2s-6.2-2.8-6.2-6.2C57.8,104.5,60.5,101.8,64,101.8z M34.4,118h3.6
	c5.4,0,9.9-4.7,9.9-10s-4.5-10-9.9-10l-3.5,0c-1.3,0-2.4,1.1-2.4,2.4v15.2C32,116.9,33.1,118,34.4,118z M35.9,102h1.7
	c3.5,0,6.2,2.7,6.2,6s-2.7,6-6.2,6h-1.7V102z M84.1,2H29c-5,0-9,4-9,9v106c0,5,4,9,9,9h70c5,0,9-4,9-9V25.9L84.1,2z M84,7.6
	L102.4,26H89c-2.8,0-5-2.2-5-5V7.6z M104,117c0,2.8-2.2,5-5,5H29c-2.8,0-5-2.2-5-5V94h80V117z M104,90H24V11c0-2.8,2.2-5,5-5h51v15
	c0,5,4,9,9,9h15V90z M30,16h22c1.1,0,2-0.9,2-2s-0.9-2-2-2H30c-1.1,0-2,0.9-2,2S28.9,16,30,16z M30,24h36c1.1,0,2-0.9,2-2
	s-0.9-2-2-2H30c-1.1,0-2,0.9-2,2S28.9,24,30,24z M30,38h15.6c1.1,0,2-0.9,2-2s-0.9-2-2-2H30c-1.1,0-2,0.9-2,2S28.9,38,30,38z
	 M45.6,58H30c-1.1,0-2,0.9-2,2s0.9,2,2,2h15.6c1.1,0,2-0.9,2-2S46.7,58,45.6,58z M98,42H74.3c-1.1,0-2,0.9-2,2s0.9,2,2,2H98
	c1.1,0,2-0.9,2-2S99.1,42,98,42z M98,50H82.2c-1.1,0-2,0.9-2,2s0.9,2,2,2H98c1.1,0,2-0.9,2-2S99.1,50,98,50z M30,46h23.6
	c1.1,0,2-0.9,2-2s-0.9-2-2-2H30c-1.1,0-2,0.9-2,2S28.9,46,30,46z M61.9,50H30c-1.1,0-2,0.9-2,2s0.9,2,2,2h31.9c1.1,0,2-0.9,2-2
	S63,50,61.9,50z M64.1,36c0,1.1,0.9,2,2,2H98c1.1,0,2-0.9,2-2s-0.9-2-2-2H66.1C65,34,64.1,34.9,64.1,36z M98,58H66.1
	c-1.1,0-2,0.9-2,2s0.9,2,2,2H98c1.1,0,2-0.9,2-2S99.1,58,98,58z M53.7,34c-1.1,0-2,0.9-2,2s0.9,2,2,2h4.2c1.1,0,2-0.9,2-2
	s-0.9-2-2-2H53.7z M57.9,58h-4.2c-1.1,0-2,0.9-2,2s0.9,2,2,2h4.2c1.1,0,2-0.9,2-2S59,58,57.9,58z M66,42h-4.2c-1.1,0-2,0.9-2,2
	s0.9,2,2,2H66c1.1,0,2-0.9,2-2S67.1,42,66,42z M70,54h4.2c1.1,0,2-0.9,2-2s-0.9-2-2-2H70c-1.1,0-2,0.9-2,2S68.9,54,70,54z" />
</svg>
