<svg xmlns="http://www.w3.org/2000/svg"  viewBox="0 0 128 128">
	<path d="M42,46c5.5,0,10-4.5,10-10s-4.5-10-10-10c-5.5,0-10,4.5-10,10S36.5,46,42,46z M42,30c3.3,0,6,2.7,6,6
	c0,3.3-2.7,6-6,6c-3.3,0-6-2.7-6-6C36,32.7,38.7,30,42,30z M71.7,40.6c-0.6,0-1.2,0.3-1.6,0.9l-14,20.2l-6-8.4
	c-0.4-0.6-1.1-0.9-1.8-0.9c-0.6,0-1.2,0.3-1.6,0.9L27.3,80.7c-1,1.4,0,3.3,1.7,3.3H99c1.6,0,2.6-1.7,1.8-3.1l-0.1-0.2L73.5,41.5
	C73.1,40.9,72.4,40.6,71.7,40.6z M32.9,80l15.5-21.9l5.2,7.3L43.5,80H32.9z M48.5,80l23.3-33.6L95.1,80H48.5z M60,118
	c1.1,0,2-0.9,2-2v-6.3c0.6,0.2,1.3,0.3,2,0.3c3.3,0,6-2.7,6-6s-2.7-6-6-6c-3.3,0-6,2.7-6,6v12C58,117.1,58.9,118,60,118z M64,102
	c1.1,0,2,0.9,2,2s-0.9,2-2,2c-1.1,0-2-0.9-2-2S62.9,102,64,102z M84.1,2H29c-5,0-9,4-9,9v106c0,5,4,9,9,9h70c5,0,9-4,9-9V25.9
	L84.1,2z M84,7.6L102.4,26H89c-2.8,0-5-2.2-5-5V7.6z M104,117c0,2.8-2.2,5-5,5H29c-2.8,0-5-2.2-5-5V94h80V117z M104,90H24V11
	c0-2.8,2.2-5,5-5h51v15c0,5,4,9,9,9h15V90z M37.8,118c3.4,0.1,6.2-2.6,6.2-6v-12c0-1.2-1.1-2.2-2.3-2c-1,0.2-1.7,1.1-1.7,2.1v6.2h0
	v5.5c0,1-0.7,1.9-1.7,2.1c-1.3,0.2-2.3-0.8-2.3-2v-0.4c0-1.1-0.9-2-2-2c-1.1,0-2,0.9-2,2v0.1C32,115,34.5,117.9,37.8,118z M86,118h4
	c3.3,0,6-2.7,6-6v-4c0-1.1-0.9-2-2-2h-3.9c-1,0-1.9,0.7-2.1,1.7c-0.2,1.3,0.8,2.3,2,2.3h2v2c0,1.1-0.9,2-2,2h-4c-1.1,0-2-0.9-2-2v-8
	c0-1.1,0.9-2,2-2h7.9c1,0,1.9-0.7,2.1-1.7c0.2-1.3-0.8-2.3-2-2.3h-8c-3.3,0-6,2.7-6,6v8C80,115.3,82.7,118,86,118z" />
</svg>
