<svg xmlns="http://www.w3.org/2000/svg"  viewBox="0 0 128 128">
	<path d="M30,30h20c1.1,0,2-0.9,2-2V12c0-1.1-0.9-2-2-2H30c-1.1,0-2,0.9-2,2v16C28,29.1,28.9,30,30,30z M32,14h16v12H32
	V14z M84.1,2H29c-5,0-9,4-9,9v106c0,5,4,9,9,9h70c5,0,9-4,9-9V25.9L84.1,2z M84,7.6L102.4,26H89c-2.8,0-5-2.2-5-5V7.6z M104,117
	c0,2.8-2.2,5-5,5H29c-2.8,0-5-2.2-5-5V94h80V117z M104,90H24V11c0-2.8,2.2-5,5-5h51v15c0,5,4,9,9,9h15V90z M58.4,118h3.6
	c5.4,0,9.9-4.7,9.9-10s-4.5-10-9.9-10l-3.5,0c-1.3,0-2.4,1.1-2.4,2.4v15.2C56,116.9,57.1,118,58.4,118z M59.9,102h1.7
	c3.5,0,6.2,2.7,6.2,6s-2.7,6-6.2,6h-1.7V102z M30,38h15.6c1.1,0,2-0.9,2-2s-0.9-2-2-2H30c-1.1,0-2,0.9-2,2S28.9,38,30,38z M45.6,58
	H30c-1.1,0-2,0.9-2,2s0.9,2,2,2h15.6c1.1,0,2-0.9,2-2S46.7,58,45.6,58z M98,42H74.3c-1.1,0-2,0.9-2,2s0.9,2,2,2H98c1.1,0,2-0.9,2-2
	S99.1,42,98,42z M98,50H82.2c-1.1,0-2,0.9-2,2s0.9,2,2,2H98c1.1,0,2-0.9,2-2S99.1,50,98,50z M30,46h23.6c1.1,0,2-0.9,2-2s-0.9-2-2-2
	H30c-1.1,0-2,0.9-2,2S28.9,46,30,46z M61.9,50H30c-1.1,0-2,0.9-2,2s0.9,2,2,2h31.9c1.1,0,2-0.9,2-2S63,50,61.9,50z M64.1,36
	c0,1.1,0.9,2,2,2H98c1.1,0,2-0.9,2-2s-0.9-2-2-2H66.1C65,34,64.1,34.9,64.1,36z M98,58H66.1c-1.1,0-2,0.9-2,2s0.9,2,2,2H98
	c1.1,0,2-0.9,2-2S99.1,58,98,58z M53.7,38h4.2c1.1,0,2-0.9,2-2s-0.9-2-2-2h-4.2c-1.1,0-2,0.9-2,2S52.6,38,53.7,38z M57.9,58h-4.2
	c-1.1,0-2,0.9-2,2s0.9,2,2,2h4.2c1.1,0,2-0.9,2-2S59,58,57.9,58z M66,42h-4.2c-1.1,0-2,0.9-2,2s0.9,2,2,2H66c1.1,0,2-0.9,2-2
	S67.1,42,66,42z M70,54h4.2c1.1,0,2-0.9,2-2s-0.9-2-2-2H70c-1.1,0-2,0.9-2,2S68.9,54,70,54z M34,118c1.1,0,2-0.9,2-2v-6.3
	c0.6,0.2,1.3,0.3,2,0.3c3.3,0,6-2.7,6-6s-2.7-6-6-6c-3.3,0-6,2.7-6,6v12C32,117.1,32.9,118,34,118z M38,102c1.1,0,2,0.9,2,2
	s-0.9,2-2,2c-1.1,0-2-0.9-2-2S36.9,102,38,102z M58,14h16c1.1,0,2-0.9,2-2s-0.9-2-2-2H58c-1.1,0-2,0.9-2,2S56.9,14,58,14z M58,22h16
	c1.1,0,2-0.9,2-2s-0.9-2-2-2H58c-1.1,0-2,0.9-2,2S56.9,22,58,22z M58,30h16c1.1,0,2-0.9,2-2s-0.9-2-2-2H58c-1.1,0-2,0.9-2,2
	S56.9,30,58,30z M86,118c1.1,0,2-0.9,2-2c0,0,0-3,0-6h4c1.1,0,2-0.9,2-2v0c0-1.1-0.9-2-2-2h-4v-2c0-1.1,0.9-2,2-2h4c1.1,0,2-0.9,2-2
	c0-1.1-0.9-2-2-2h-4c-3.3,0-6,2.7-6,6v12C84,117.1,84.9,118,86,118z"  />
</svg>
